<svg width="24" height="24" viewBox="0 0 24 24" fill="none" xmlns="http://www.w3.org/2000/svg">
<path d="M18.8693 12.7631C18.8927 10.8934 19.8465 9.16632 21.3966 8.187C20.4143 6.74529 18.828 5.86399 17.1163 5.80895C15.3154 5.61469 13.5695 6.91641 12.6518 6.91641C11.7163 6.91641 10.3034 5.82824 8.78188 5.86041C6.77997 5.92688 4.95889 7.06823 3.98492 8.86688C1.91082 12.5573 3.45791 17.9809 5.44473 20.964C6.43878 22.4247 7.60054 24.0564 9.12067 23.9985C10.6082 23.9351 11.1638 23.0237 12.9594 23.0237C14.7383 23.0237 15.2595 23.9985 16.8105 23.9617C18.4067 23.9351 19.4124 22.4945 20.3716 21.02C21.0858 19.9791 21.6354 18.8288 22 17.6116C20.1042 16.7876 18.8715 14.8785 18.8693 12.7631Z" fill="black"/>
<path d="M15.9407 3.84712C16.8111 2.77341 17.2398 1.39335 17.136 0C15.8063 0.14352 14.5781 0.796598 13.6961 1.82911C12.825 2.84782 12.3838 4.18056 12.4695 5.5338C13.817 5.54806 15.0964 4.9264 15.9407 3.84712Z" fill="black"/>
</svg>
