<svg width="24" height="24" viewBox="0 0 24 24" fill="none" xmlns="http://www.w3.org/2000/svg">
<path fill-rule="evenodd" clip-rule="evenodd" d="M21.6 12.2273C21.6 11.5182 21.5364 10.8364 21.4182 10.1818H12V14.05H17.3818C17.15 15.3 16.4455 16.3591 15.3864 17.0682V19.5773H18.6182C20.5091 17.8364 21.6 15.2728 21.6 12.2273Z" fill="#4285F4"/>
<path fill-rule="evenodd" clip-rule="evenodd" d="M11.9998 22C14.6998 22 16.9635 21.1045 18.618 19.5773L15.3862 17.0682C14.4908 17.6682 13.3453 18.0227 11.9998 18.0227C9.3953 18.0227 7.19075 16.2636 6.40439 13.9H3.06348V16.4909C4.70893 19.7591 8.09075 22 11.9998 22Z" fill="#34A853"/>
<path fill-rule="evenodd" clip-rule="evenodd" d="M6.40455 13.9C6.20455 13.3 6.09091 12.6591 6.09091 12C6.09091 11.3409 6.20455 10.7 6.40455 10.1V7.50913H3.06364C2.38636 8.85913 2 10.3864 2 12C2 13.6137 2.38636 15.1409 3.06364 16.4909L6.40455 13.9Z" fill="#FBBC05"/>
<path fill-rule="evenodd" clip-rule="evenodd" d="M11.9998 5.97729C13.468 5.97729 14.7862 6.48184 15.8226 7.47275L18.6908 4.60456C16.9589 2.99091 14.6953 2 11.9998 2C8.09075 2 4.70893 4.24092 3.06348 7.50912L6.40439 10.1C7.19075 7.73639 9.3953 5.97729 11.9998 5.97729Z" fill="#EA4335"/>
</svg>
